PathFileType	4	(X/Y/Z)	TYPE-2_1685523821198
DataRate	CameraRate	NumFrames	NumMarkers	Units	OrigDataRate	OrigDataStartFrame	OrigNumFrames
60.00	60.00	       26	13	mm  	60.00	57	       199
Frame#	Time	H			R			B			RF			RK			RB			RA			RD			LF			LK			LB			LA			LD			
		X1	Y1	Z1	X2	Y2	Z2	X3	Y3	Z3	X4	Y4	Z4	X5	Y5	Z5	X6	Y6	Z6	X7	Y7	Z7	X8	Y8	Z8	X9	Y9	Z9	X10	Y10	Z10	X11	Y11	Z11	X12	Y12	Z12	X13	Y13	Z13	
57	0.933333	-216.377219	829.306983	-208.703085	-34.366775	818.296269	-42.207738	4.504383	834.812340	-288.947836	-237.731332	539.691831	27.526786	-275.601516	417.906657	-21.020455	-534.186474	259.085445	-7.507305	-603.253682	187.515801	-59.391126	-547.866452	96.593994	-77.742316	101.265206	513.332848	-381.204276	148.144156	442.263692	-319.811202	150.479762	131.461256	-321.479492	166.161689	54.052598	-262.588854	273.766397	60.225271	-253.580087	
58	0.950000	-188.349947	830.307957	-206.367479	-3.002922	819.630901	-46.712121	31.697511	840.484527	-293.619049	-195.356765	535.020619	30.362879	-230.057198	411.233497	-17.016558	-492.979709	266.259092	-2.168777	-566.050814	202.029925	-55.887717	-524.176733	106.770563	-75.573539	119.449567	509.328952	-383.539882	167.829979	438.927112	-323.147782	157.319752	131.961743	-320.812176	167.996808	54.219427	-262.255196	275.101029	58.890639	-252.412284	
59	0.966667	-161.323648	832.476734	-206.033821	26.692641	821.799678	-52.050650	57.389178	845.322568	-298.123432	-150.312933	529.682091	33.866288	-181.843615	404.393508	-14.514123	-449.437339	272.098107	2.001948	-526.178681	215.709903	-53.051624	-495.815803	118.448593	-72.236959	136.632955	507.994320	-384.874514	186.514827	437.091993	-325.149731	163.492425	131.961743	-320.645347	169.331440	54.219427	-261.921538	275.601516	58.223323	-251.411310	
60	0.983333	-135.131494	835.813314	-207.535282	55.220401	825.136258	-57.222349	82.413528	849.493293	-302.294157	-104.101299	524.343562	37.703355	-131.961743	399.555467	-11.844859	-403.058876	277.770293	5.505357	-482.969969	228.555737	-50.716017	-464.451950	129.792966	-68.733550	153.983172	508.327978	-385.875488	203.364557	436.091019	-326.150705	168.330466	131.961743	-321.145834	170.332414	54.219427	-261.587880	275.768345	57.722836	-251.077652	
61	1.000000	-109.940314	839.483553	-208.869914	82.079870	829.473812	-61.393074	106.270076	853.330360	-306.798540	-59.057468	520.673324	36.869210	-81.412554	397.720348	-9.342424	-355.012122	286.111743	7.340476	-437.425651	241.401570	-47.879924	-419.908605	142.138312	-65.063312	171.833875	508.661636	-386.709633	217.711851	434.589558	-327.151679	171.333388	131.794914	-321.145834	170.832901	54.219427	-260.753735	275.768345	57.722836	-251.077652	
62	1.016667	-85.750109	843.654278	-210.871862	106.770563	835.980143	-64.062338	129.292479	857.667914	-311.469752	-17.350217	522.842101	37.036039	-30.362879	398.220835	-7.674134	-305.463908	296.288313	7.507305	-385.208172	251.744968	-50.882846	-370.860878	153.482684	-64.896483	185.513853	509.495781	-389.045239	229.556711	433.088097	-328.653140	172.668020	131.961743	-320.812176	170.999730	54.219427	-259.919590	275.601516	57.556007	-250.910823	
63	1.033333	-61.893561	848.492319	-213.207468	130.126624	843.821107	-65.730628	152.481710	862.005468	-315.473648	23.689719	526.011852	37.036039	21.020455	400.890099	-6.673160	-252.912771	303.461960	7.840963	-334.658984	261.254222	-49.214556	-312.137068	161.156819	-63.728680	198.192858	510.163097	-390.379871	239.065964	431.419807	-329.654114	172.668020	132.295401	-320.478518	170.832901	54.553085	-259.919590	275.434687	57.556007	-250.910823	
64	1.050000	-38.537500	854.664992	-214.708929	153.816343	851.161583	-68.566721	175.670942	866.009364	-318.643399	64.395996	530.349407	36.368723	73.071104	405.728140	-6.005844	-197.859200	306.798540	8.007792	-278.771267	262.755683	-48.213582	-252.078626	164.827057	-63.895509	209.203572	510.163097	-391.714503	246.906927	429.751517	-330.821917	172.501191	132.962717	-320.144860	170.666072	54.719914	-259.752761	275.267858	57.556007	-250.743994	
65	1.066667	-15.348268	861.004494	-215.876732	178.507035	858.001572	-72.570617	197.859200	870.180089	-321.979979	104.935444	535.187448	34.700433	125.288583	411.900813	-6.005844	-141.804654	307.299027	7.507305	-221.715747	258.751787	-47.879924	-189.851408	164.493399	-64.896483	219.046483	510.496755	-393.382794	253.580087	428.750543	-331.822891	172.334362	133.463204	-319.978031	170.499243	54.719914	-259.752761	275.101029	57.556007	-250.910823	
66	1.083333	7.674134	867.343996	-216.710877	203.698215	864.841561	-76.574513	219.713799	874.517644	-325.483389	146.142208	540.859634	32.865314	176.671916	418.907631	-7.006818	-85.583280	304.629763	7.507305	-163.992912	253.246429	-47.546266	-124.954925	161.824135	-66.397944	228.222079	510.997242	-394.383768	259.585932	427.749569	-329.987772	172.501191	133.630033	-320.144860	170.332414	54.886743	-259.752761	274.767371	57.556007	-251.244481	
67	1.100000	30.529708	874.517644	-215.376245	228.889395	871.848380	-80.077922	241.902057	877.854224	-328.653140	187.849459	547.699623	31.864340	226.220131	427.249082	-9.509253	-29.195076	299.124406	7.340476	-105.435931	245.071808	-48.046753	-57.556007	156.986094	-67.398918	236.563529	511.998216	-394.550597	263.923486	426.915423	-331.989720	173.168507	133.630033	-320.311689	170.332414	54.886743	-259.752761	274.767371	57.389178	-251.244481	
68	1.116667	53.552111	880.356659	-219.213312	253.246429	875.852276	-82.580357	263.756657	881.023975	-331.989720	229.723540	555.373757	31.030195	273.766397	436.758335	-13.179491	27.526786	290.782956	5.505357	-44.209686	229.890369	-49.715043	11.678030	150.980249	-67.899405	244.738150	513.166019	-394.383768	267.927382	426.581765	-330.321430	173.502165	133.963691	-320.144860	171.500217	55.220401	-260.086419	274.600542	57.889665	-252.078626	
69	1.133333	76.908171	884.193726	-215.709903	278.103951	879.522514	-84.915963	283.776137	884.527384	-336.327274	271.097133	563.047891	29.695563	319.811202	446.100759	-17.183388	85.416451	280.105899	3.002922	18.017533	213.040639	-51.716992	84.415476	139.969535	-68.066234	252.745942	514.000164	-393.716452	272.431765	426.248107	-331.989720	173.835823	134.797836	-319.978031	172.501191	55.720888	-260.420077	274.600542	58.390152	-253.746916	
70	1.150000	100.097403	886.529332	-216.710877	302.961473	882.358607	-87.918886	304.462934	884.861042	-339.830683	310.969265	570.888855	27.693615	363.854060	454.442209	-21.187284	143.806602	267.760553	0.834145	81.579383	194.856278	-53.718940	157.152923	131.294427	-69.901353	260.253248	514.333822	-393.215965	277.269806	426.748594	-331.322404	174.336310	135.798810	-319.310715	171.667046	56.054546	-259.919590	274.266884	55.387230	-254.581061	
71	1.166667	122.952977	889.365425	-214.875758	327.652166	884.360555	-91.755953	326.818021	885.862016	-342.499947	349.339936	578.062502	25.024351	405.227653	462.450002	-25.524838	203.698215	253.246429	-1.334632	149.979275	173.168507	-54.553085	230.724514	122.118832	-72.737446	268.094211	515.001138	-392.715477	281.941018	426.748594	-330.821917	175.003626	136.466126	-318.476570	170.666072	56.721862	-259.419103	274.433713	57.222349	-253.580087	
72	1.183333	147.143182	891.534202	-217.378193	352.009200	885.528358	-95.926678	349.673594	885.528358	-344.168237	386.542804	583.901517	22.355087	443.931982	469.623649	-30.529708	265.258118	237.397674	-4.504383	220.047457	151.981223	-57.055520	305.630737	111.942262	-75.573539	276.602490	515.334796	-392.048161	286.445401	426.081278	-329.487285	175.837771	137.300271	-317.976083	170.666072	57.889665	-259.419103	274.934200	57.222349	-252.579113	
73	1.200000	169.998756	890.533228	-214.208442	376.699893	885.695187	-99.430087	371.361365	883.526410	-346.503843	421.743724	587.905413	19.185336	480.133876	474.461690	-35.534578	326.984850	222.049406	-7.840963	291.950759	131.628085	-60.058442	381.371105	102.266180	-77.575487	285.277598	515.668454	-391.547674	291.450272	426.081278	-325.817047	176.505087	138.134416	-317.809254	170.999730	58.890639	-259.585932	275.434687	57.055520	-251.411310	
74	1.216667	193.521646	888.864938	-212.206494	402.057902	884.861042	-102.266180	393.382794	881.190804	-349.506765	454.275380	590.074190	15.181439	514.000164	476.463638	-40.706277	388.377923	206.867966	-10.677056	365.355521	112.776407	-62.894535	457.445131	94.258388	-79.410606	294.119536	515.835283	-391.380845	295.954655	424.913475	-327.318508	177.339232	139.635877	-316.975109	170.999730	60.058442	-259.752761	274.767371	57.055520	-250.410336	
75	1.233333	217.545022	885.862016	-211.038691	427.582740	883.693239	-104.268128	416.071538	878.354711	-352.342858	484.471430	589.907361	10.510227	545.030359	476.296809	-45.711147	449.103681	192.520672	-14.514123	439.260770	96.760823	-66.564773	533.352329	88.919860	-80.578409	302.794644	515.668454	-391.380845	301.460012	425.247133	-325.149731	177.839719	141.304167	-315.640477	169.998756	63.895509	-263.422999	275.101029	57.222349	-250.410336	
76	1.250000	241.902057	882.859094	-208.869914	453.274406	881.190804	-105.269102	439.093941	874.517644	-353.844319	511.998216	587.071268	5.672186	573.558119	474.128032	-50.882846	509.328952	180.842641	-20.353139	512.498703	84.081818	-70.902327	608.091723	86.751083	-79.911093	311.469752	515.334796	-391.380845	306.131224	425.413962	-326.651192	178.006548	142.972457	-314.639503	171.667046	61.726732	-258.751787	276.102003	57.556007	-250.743994	
77	1.266667	266.759579	880.023001	-206.033821	479.466560	877.687395	-106.103247	463.617805	870.513747	-353.177003	536.855738	581.565911	0.500487	600.250760	469.957307	-55.887717	568.886907	171.667046	-26.692641	584.568833	74.906223	-75.740368	680.495511	87.418399	-81.412554	320.645347	515.167967	-391.714503	312.137068	425.580791	-326.484363	179.007522	145.308063	-313.972187	172.668020	62.227219	-257.417155	276.602490	58.223323	-250.910823	
78	1.283333	292.284417	874.851302	-207.535282	506.492859	872.849354	-106.270076	486.473378	866.176193	-353.010174	560.545456	574.225435	-3.837067	625.441939	463.951463	-60.392100	627.277058	164.326570	-32.364827	654.303357	69.567695	-81.913041	749.395890	91.589124	-85.583280	329.654114	514.500651	-392.214990	319.477544	425.747620	-326.317534	180.675812	148.144156	-313.471700	173.168507	65.396970	-257.417155	277.436635	58.390152	-250.910823	
79	1.300000	318.476570	869.345944	-203.698215	534.520132	866.509851	-106.603734	504.657740	861.171323	-355.512609	583.567859	565.717156	-6.506331	649.465316	456.777815	-64.896483	683.498433	158.821213	-37.870184	721.201788	68.233063	-88.753031	814.125544	100.097403	-90.921808	339.663854	514.166993	-392.381819	327.652166	425.747620	-326.484363	182.510931	151.647565	-312.303897	173.668994	73.404762	-258.251300	278.437609	58.890639	-250.743994	
80	1.316667	344.835553	864.007416	-201.195780	562.714233	860.003520	-107.604708	528.514287	854.498163	-356.680412	606.256604	555.707415	-8.675108	673.321864	448.603194	-69.067208	736.216399	155.985120	-43.041883	784.263152	70.235011	-94.592046	874.350815	111.608604	-96.760823	351.508713	513.833335	-392.381819	337.661906	425.914449	-326.150705	185.013366	155.985120	-310.468778	174.669968	75.406710	-257.250326	279.438583	59.557955	-251.244481	
81	1.333333	371.528194	858.835717	-199.527490	590.908335	852.829873	-108.939340	552.871322	849.660122	-360.350651	630.613638	545.030359	-10.510227	698.179385	440.595402	-73.071104	786.932416	155.651462	-47.546266	842.486475	75.073052	-99.596916	929.571215	124.287609	-102.766667	364.354547	513.666506	-392.381819	349.173107	425.747620	-325.817047	188.683605	160.823161	-309.634633	176.671916	79.076948	-256.583010	279.772241	60.558929	-252.912771	
82	1.350000	398.054006	853.497189	-196.691397	619.602924	844.988910	-110.440801	577.562015	843.320620	-356.179925	657.639937	535.521106	-11.678030	723.871052	433.755413	-76.741342	834.478682	156.318778	-51.550163	896.372243	82.914015	-104.768615	978.285285	135.631981	-109.773485	378.701841	514.000164	-391.714503	361.518454	425.580791	-326.651192	193.521646	166.328518	-310.301949	179.007522	84.582305	-256.249352	280.773215	61.393074	-254.414232	
